<?xml version="1.0" standalone="no"?>
<!DOCTYPE svg PUBLIC "-//W3C//DTD SVG 20010904//EN"
 "http://www.w3.org/TR/2001/REC-SVG-20010904/DTD/svg10.dtd">
<svg version="1.0" xmlns="http://www.w3.org/2000/svg"
 width="512.000000pt" height="512.000000pt" viewBox="0 0 512.000000 512.000000"
 preserveAspectRatio="xMidYMid meet">

<g transform="translate(0.000000,512.000000) scale(0.100000,-0.100000)"
fill="#000000" stroke="none">
<path d="M2341 4949 c-548 -49 -1081 -300 -1477 -696 -192 -192 -329 -383
-454 -635 -332 -668 -332 -1449 1 -2116 127 -256 262 -443 466 -644 201 -200
371 -321 628 -448 437 -217 922 -292 1413 -220 627 92 1182 425 1567 941 401
537 560 1236 429 1889 -135 680 -542 1252 -1143 1612 -411 245 -934 361 -1430
317z m404 -319 c731 -69 1360 -501 1680 -1154 96 -197 152 -373 192 -601 24
-140 24 -490 0 -630 -40 -228 -96 -405 -192 -600 -87 -178 -168 -297 -323
-474 l-38 -44 -41 74 c-174 317 -489 574 -843 687 -193 62 -241 67 -615 67
-289 0 -355 -3 -440 -19 -439 -81 -816 -352 -1028 -735 l-41 -74 -45 49 c-70
77 -187 238 -247 340 -348 591 -376 1330 -75 1949 210 430 575 788 1005 983
336 152 697 215 1051 182z"/>
<path d="M2385 3954 c-257 -56 -477 -239 -582 -484 -75 -175 -84 -391 -24
-570 89 -266 297 -465 567 -542 113 -32 315 -32 428 0 269 77 475 274 568 542
31 91 32 102 33 245 0 176 -13 233 -81 370 -102 207 -298 369 -519 430 -87 24
-301 29 -390 9z"/>
</g>
</svg>
