<?xml version="1.0" standalone="no"?>
<!DOCTYPE svg PUBLIC "-//W3C//DTD SVG 20010904//EN"
 "http://www.w3.org/TR/2001/REC-SVG-20010904/DTD/svg10.dtd">
<svg version="1.0" xmlns="http://www.w3.org/2000/svg"
 width="512.000000pt" height="512.000000pt" viewBox="0 0 512.000000 512.000000"
 preserveAspectRatio="xMidYMid meet">

<g transform="translate(0.000000,512.000000) scale(0.100000,-0.100000)"
fill="#F99A9A" stroke="none">
<path d="M2370 5109 c-821 -84 -1500 -692 -1674 -1500 -38 -174 -52 -364 -37
-499 56 -521 475 -1310 1227 -2312 249 -331 583 -746 625 -776 21 -15 63 -18
95 -8 45 14 538 636 846 1066 608 852 949 1520 1015 1992 39 276 -34 652 -186
963 -124 253 -286 460 -502 640 -391 327 -905 485 -1409 434z m470 -225 c253
-44 500 -147 710 -297 129 -92 322 -291 409 -421 172 -258 261 -507 292 -816
23 -231 -22 -451 -154 -764 -244 -577 -831 -1462 -1519 -2290 l-18 -21 -17 21
c-123 147 -379 473 -503 639 -657 880 -1053 1590 -1156 2075 -25 118 -23 335
5 491 81 457 350 866 741 1127 214 142 491 242 755 272 109 12 339 4 455 -16z"/>
<path d="M2360 4191 c-115 -25 -228 -70 -330 -133 -113 -69 -259 -215 -328
-328 -203 -330 -203 -730 0 -1060 69 -113 215 -259 328 -328 273 -168 599
-198 895 -83 252 97 479 324 576 576 53 136 72 250 66 400 -7 166 -32 268
-102 410 -142 291 -402 488 -724 549 -109 21 -274 19 -381 -3z m357 -197 c154
-32 295 -108 407 -220 322 -323 314 -827 -18 -1141 -91 -87 -182 -142 -306
-185 -90 -30 -102 -32 -240 -32 -138 0 -150 2 -240 32 -124 43 -215 98 -306
185 -380 360 -326 958 113 1247 173 114 389 156 590 114z"/>
</g>
</svg>
