<?xml version="1.0" standalone="no"?>
<!DOCTYPE svg PUBLIC "-//W3C//DTD SVG 20010904//EN"
 "http://www.w3.org/TR/2001/REC-SVG-20010904/DTD/svg10.dtd">
<svg version="1.0" xmlns="http://www.w3.org/2000/svg"
 width="512.000000pt" height="512.000000pt" viewBox="0 0 512.000000 512.000000"
 preserveAspectRatio="xMidYMid meet">

<g transform="translate(0.000000,512.000000) scale(0.100000,-0.100000)"
fill="#FFFFFF" stroke="none">
<path d="M1053 5110 c-172 -23 -366 -98 -519 -200 -101 -68 -256 -223 -324
-324 -75 -113 -137 -248 -173 -384 l-32 -117 0 -1525 0 -1525 32 -117 c60
-221 162 -398 322 -559 197 -198 437 -315 713 -349 67 -8 507 -10 1548 -8
1602 4 1488 0 1680 65 344 117 636 409 753 753 65 192 61 78 65 1680 2 1041 0
1481 -8 1548 -34 278 -149 513 -349 713 -160 160 -338 262 -559 322 l-117 32
-1485 1 c-817 1 -1513 -2 -1547 -6z m971 -1314 c18 -7 48 -33 68 -57 19 -24
230 -323 468 -664 238 -341 441 -629 451 -640 19 -19 19 -2 19 666 0 519 3
688 12 697 17 17 549 17 566 0 16 -16 18 -2439 2 -2469 -10 -18 -23 -19 -228
-19 -244 0 -271 6 -327 71 -17 19 -239 335 -495 702 l-465 668 -3 -707 c-1
-502 -5 -711 -13 -721 -9 -10 -68 -13 -285 -13 -260 0 -274 1 -284 19 -16 30
-14 2453 2 2469 18 18 467 17 512 -2z"/>
</g>
</svg>
